<svg xmlns="http://www.w3.org/2000/svg" viewBox="0 0 162.49 172.8"><path id="logo_s" fill="#1b1b1b" d="M32.09,91.17c-8.58-3.1-19.16-3.59-21.86-14.24C6.74,63.13,23,48.33,35,60.3c2.53,2.51,11.41-1.07,8.65-3.81C28.81,41.74,2.24,51.71.45,73.1c-1,12,8.19,18.24,18.37,21.58,10.46,3.42,16.93,5.49,18.26,17.75a31.47,31.47,0,0,1-4.91,20c-8.38,13.05-24.72,10.92-22.6-6.13.5-4.06-9-2.49-9.4,1C-1.22,138.51,6.1,152,18.83,150S42.7,133.77,45.6,122C48.87,108.74,45.29,95.94,32.09,91.17Z"/><path id="logo_k" fill="#1b1b1b" d="M101.23,125.12a102.89,102.89,0,0,0-6.86-14.71C89,100.69,80,93.84,74.72,84.07a2.07,2.07,0,0,0-.67-.74c3.34-4.56,8.5-9,11.06-12,6.35-7.45,13.21-16,17-25.11.51-1.22-8.25-.56-9.22,1.74-4,9.53-11.4,18.67-18.16,26.45-1.55,1.78-3.85,4-6.09,6.4-.42-9.59-1.19-20.06.71-28.83.85-3.93-8.64-2.55-9.41,1-2.49,11.49-.52,24.24-.51,35.94,0,15,2.3,29.84,2.67,44.84.1,4.3,9.49,2.46,9.41-1-.33-13.5-2.16-26.88-2.58-40.37l0,0c5.74,8,13.11,14.77,17.69,23.76a99.46,99.46,0,0,1,5.89,13.78c1.18,3.58,1.7,7.74,4.36,10.57,2.23,2.38,11.15-1.06,8.7-3.67C102.86,133.87,102.53,128.75,101.23,125.12Z"/><path id="logo_i" fill="#1b1b1b" d="M125.88,128.77c-2.39-13.14-1.06-26.29-1.1-39.56,0-12.87-3.2-28.16,0-40.78.52-2.07-8.64-.79-9.24,1.62-2.79,11.12-.36,24-.16,35.3.26,15.3-1.58,30.79,1.17,45.93C116.88,133.29,126.31,131.16,125.88,128.77Z"/><path id="logo_3" fill="#1b1b1b" d="M133.2,33.2a16.49,16.49,0,0,1,3.72-.28c1.54-.14,3.08-.67,4.63-.31l-.5-1c-.63,1-1.9,1.28-2.89,1.87-1.22.73-2.24,1.74-3.47,2.46-1.6,1,.55,1.64,1.53,1.24,1.5-.61,4.89.09,4.62,2.21-.17,1.36-2.14,2.13-3.4,2.11s-2-1.43-3-2-3.58.87-2.28,1.52c1,.49,1.51,1.5,2.5,2a5.32,5.32,0,0,0,3.28.17c2.15-.38,5.07-1.35,5.73-3.71,1.28-4.51-6-4.81-8.64-3.72L136.54,37c1.59-.93,2.91-2.15,4.57-3a6,6,0,0,0,2.67-2.24.65.65,0,0,0-.5-1,15.09,15.09,0,0,0-5.48.15c-1.68.21-3.41,0-5.05.5s-1.3,2.26.45,1.68Z"/></svg>