<svg xmlns="http://www.w3.org/2000/svg" viewBox="0 0 288.31 152.17"><defs><style>.cls-1{fill:#1d1d1b;}</style></defs><title>Asset 4</title><g id="Layer_2" data-name="Layer 2"><g id="Layer_2-2" data-name="Layer 2"><path class="cls-1" d="M62.7,6.44c.65-8.61-12.42-8.23-13.48-1-.89,6.09,7.13,8,8.85,13,.64,1.88,2.63,7.58,1.08,9.28-3.59,3.92-5.48-5.14-5.45-7,0-.58-2.89-.15-2.9.78-.06,3.85,1.8,9.14,6.44,8.64,5.08-.54,5.59-4.68,4.66-8.9-.54-2.44-1.09-5-2.76-6.95C57.07,12,53.8,10.9,52.56,7.83c-1.1-2.74,0-6.76,3.6-6.46,3.07.25,3.84,3.28,3.64,5.84,0,.53,2.83.17,2.9-.77Z"/><path class="cls-1" d="M64.8,1.66c0,5.47,0,10.94,0,16.41,0,3-.26,7.09,2.11,9.34.78.74,3.52-.37,2.68-1.17-2.52-2.4-1.86-7.61-1.87-10.75,0-4.72,0-9.44,0-14.16,0-1.28-2.9-.71-2.9.33Z"/><path class="cls-1" d="M68.59,14.88c2.79-4,6.33-7.49,9-11.59C78.47,2,75.53,2,74.87,3c-2.7,4.09-6.24,7.55-9,11.59-.87,1.25,2.08,1.24,2.75.27Z"/><path class="cls-1" d="M66.8,13.69c.69,3.06,3.51,5,4.76,7.79,1,2.36,1.72,4.87,3.34,6.92.63.78,3.42-.23,2.69-1.15-1.7-2.14-2.28-4.84-3.47-7.27s-3.8-4.31-4.42-7.06c-.23-1-3.14-.28-2.9.77Z"/><path class="cls-1" d="M82.3,3.21c0,8.35-.45,17,.26,25.3.09,1,2.63-.14,2.89-.61l.07-.12c.34-.61-2.42-.39-2.88.43l-.07.12,2.89-.6c-.72-8.32-.24-16.94-.26-25.29,0-.71-2.9-.22-2.9.77Z"/><path class="cls-1" d="M132.7,5.27C129.62-1,121,4.61,120.51,9.79c-.37,4.19,1.71,4.29,4.7,5.72,3.15,1.51,4.33,4.94,3.3,8.36-1.69,5.64-5.84,2.07-5.16-2.29.11-.72-2.75-.23-2.86.49-1.17,7.47,7.51,8.44,10.4,2.52,1.54-3.16,1.12-8.12-2.27-9.85-2.05-1-4-.66-5-3.14C122.09,8,127.26.86,129.8,6.05c.36.73,3.15-.27,2.9-.78Z"/><path class="cls-1" d="M137.63,4.05c0,8.43-.3,16.86-.33,25.3l2.9-.78v-.8c0-.56-2.9-.12-2.9.78v.8c0,.55,2.89.12,2.9-.78,0-8.43.31-16.87.33-25.3,0-.56-2.89-.12-2.9.78Z"/><path class="cls-1" d="M140.68,13.42c.22-1.84,3.2-3.39,4.57-4.34,2.15-1.48,4.5-3,5.77-5.32.27-.52-2.45-.32-2.87.47-1.36,2.51-4.17,3.92-6.42,5.54-1.26.91-3.72,2.4-3.92,4.12-.09.85,2.79.3,2.87-.47Z"/><path class="cls-1" d="M138.13,13.21c1.37,3.66,3.55,6.88,5.57,10.2,1.3,2.14,1.71,5.71,3.68,7.22.59.46,3.06-.7,2.74-.95-1.22-.94-1.3-2.34-1.78-3.68a23.54,23.54,0,0,0-2.3-4.28,54.33,54.33,0,0,1-5-9.28c-.22-.6-3.07.3-2.9.77Z"/><path class="cls-1" d="M155,4.15c0,8-1.35,16.32-.16,24.23.17,1.12,3.08.42,2.9-.78-1.17-7.74.14-15.95.17-23.76,0-1.33-2.91-.78-2.91.31Z"/><path class="cls-1" d="M200.26,6.24c-4.6-4.57-12.82-1.48-13.38,5.13-.31,3.72,2.54,5.65,5.69,6.68s5.23,1.7,5.65,5.5a9.78,9.78,0,0,1-1.52,6.18c-2.6,4-7.65,3.38-7-1.9.16-1.25-2.77-.77-2.91.32-.43,3.47,1.84,7.63,5.78,7s7.39-5,8.28-8.65c1-4.1-.09-8.07-4.18-9.54-2.65-1-5.93-1.11-6.76-4.41-1.08-4.27,3.93-8.85,7.67-5.15.78.78,3.53-.33,2.68-1.17Z"/><path class="cls-1" d="M205.29,5.15c-.77,3.55-.16,7.5-.16,11.12,0,4.65.72,9.23.83,13.88,0,1.33,2.94.76,2.91-.31-.11-4.64-.8-9.24-.82-13.88,0-3.49-.58-7.72.15-11.12.27-1.22-2.67-.79-2.91.31Z"/><path class="cls-1" d="M208.7,16.77c.05-2,3.16-4.52,4.38-5.94a31.49,31.49,0,0,0,5.26-7.77c.16-.38-2.55-.18-2.85.53a32.6,32.6,0,0,1-5.62,8.19c-1.24,1.42-4,3.7-4.07,5.77,0,.35,2.88,0,2.9-.78Z"/><path class="cls-1" d="M207,15.55c1.8,3.36,4.85,5.72,6.59,9.14A29.82,29.82,0,0,1,215.39,29c.36,1.1.52,2.39,1.35,3.27s3.45-.33,2.69-1.14-1-2.49-1.36-3.61A32,32,0,0,0,216,22.92c-1.67-3-4.46-5.13-6.09-8.15-.52-1-3.33,0-2.89.78Z"/><path class="cls-1" d="M222.49,4.24c-.87,3.44-.11,7.43-.05,10.93.08,4.73-.49,9.53.36,14.21.11.62,3,0,2.9-.78-.74-4.06-.33-8.13-.34-12.24s-1-8.71,0-12.62c.16-.64-2.68-.24-2.86.5Z"/><path class="cls-1" d="M260.71,6.28a3.57,3.57,0,0,0-1.54.58c-1.57,1.06.54,1.9,1.6,1.49,3.64-1.4,7.31-2.66,11-4,1.86-.69.22-2.24-1.28-1.68-3.64,1.36-7.31,2.61-10.95,4l1.6,1.49-.64.21c1.56-.26,2.23-2.43.26-2.09Z"/><path class="cls-1" d="M260.83,15.4c2.08-.53,4.44,0,6.57.08.64,0,1.6-.18,1.89-.86s-.23-1.1-.85-1.11c-2.69,0-5.46-.61-8.1.07-1.78.46-1.29,2.28.49,1.82Z"/><path class="cls-1" d="M261.05,19.82c4,2.19,5.22,7.4,9.33,9.5.76.39,3.09-.81,2.73-1-4.11-2.1-5.29-7.31-9.33-9.5-.74-.4-3.1.79-2.73,1Z"/><path class="cls-1" d="M2.46,8.48a22.06,22.06,0,0,0,5.82,2.76c1.34.54,3.42,1.2,4.14,2.55.59,1.1,3.36.05,2.66-1.26s-2.6-2.1-3.94-2.7c-2.17-1-4.53-1.5-6.44-3-1-.77-3.53.63-2.24,1.64Z"/><path class="cls-1" d="M3.06,20.46c3.34,0,6.65,0,9.81-1.21.53-.2,1.07-.81.71-1.37s-1.45-.34-1.95-.15c-2.36.92-5,.8-7.52.79-.62,0-1.65.17-1.9.85a.8.8,0,0,0,.85,1.09Z"/><path class="cls-1" d="M5.72,32.06c.76-4.36,5.51-6.88,7.92-10.28,1.06-1.52-1.65-2-2.44-.91-2.73,3.86-7.55,6.41-8.42,11.39-.26,1.48,2.7,1.14,2.94-.2Z"/><path class="cls-1" d="M77.13,59.88c1.67,3.32,2,7.07,2.12,10.71.22,5,1.21,9.91,1.38,14.91,0,.9,2.89.32,2.9-.57,0-3.56,1.57-6.51,2.64-9.82,1.15-3.55,1.55-7.26,2.87-10.76l-2.9.57c.72,6.1,3.74,11.52,4.16,17.76.06.93,2.84.3,2.9-.57.49-7.8,3.75-15.38,4.41-23.18.1-1.15-2.81-.6-2.89.37-.66,7.8-3.93,15.37-4.42,23.18l2.9-.57c-.43-6.24-3.45-11.67-4.16-17.76-.13-1.11-2.65-.09-2.9.57-1.31,3.5-1.69,7.21-2.86,10.75-1.09,3.3-2.6,6.29-2.65,9.83l2.9-.57c-.17-5-1.16-9.91-1.38-14.91C82,66.17,81.7,62.43,80,59.1c-.49-1-3.31-.05-2.9.78Z"/><path class="cls-1" d="M102.13,60.55c-.27,3.41.39,6.76.5,10.16.12,3.78.15,7.56.17,11.34,0,.61,2.9.15,2.9-.78,0-3.77,0-7.56-.17-11.33-.11-3.41-.77-6.76-.5-10.17,0-.55-2.82-.18-2.9.78Z"/><path class="cls-1" d="M116.46,61.46c-.08,7.61-.89,15.17,0,22.75.14,1.19,3,.5,2.89-.77-.87-7.42-.06-14.82,0-22.25,0-1.4-2.91-.89-2.92.27Z"/><path class="cls-1" d="M126.47,60.38c0,4.05.54,8.13.23,12.17-.27,3.39-1,6.65-.07,10,.19.68,3.09-.09,2.9-.78-.91-3.34-.2-6.61.06-10,.32-4-.17-8.13-.23-12.18,0-.51-2.91-.07-2.89.78Z"/><path class="cls-1" d="M130.3,69c-.5.34-.17.09.24.07s1,0,1.55,0c.86,0,1.72.12,2.58.13.56,0,1.63-.21,1.92-.77s-.25-.76-.76-.76c-2.23,0-5.31-.8-7.3.55-1.61,1.1.91,1.34,1.77.75Z"/><path class="cls-1" d="M134.3,59.88c.18,7.81-.21,15.51-.17,23.33,0,.61,2.91.15,2.9-.77-.05-7.83.35-15.51.17-23.34,0-.62-2.92-.14-2.9.78Z"/><path class="cls-1" d="M107.9,62.83c2.69-.21,5.25-1.19,8-1.4a56.78,56.78,0,0,0,8.4-1.17c1.76-.42,1.35-1.95-.41-1.54a61.16,61.16,0,0,1-8.63,1.1c-2.37.22-4.65,1.14-7,1.33-1.46.12-2.38,1.85-.37,1.68Z"/><path class="cls-1" d="M159.37,82.65c1.11-7.81,2.16-15.59,2-23.5l-2.9.78c1.12,4.25,4,7.55,6.24,11.23.54.86,2.54,0,2.8-.75,1.56-4.43,2.63-9,4.38-13.38l-2.91.34c-.05,5,0,10,0,15,0,4,1.05,7.72,1.36,11.69.08,1,3,.37,2.9-.78-.35-4.46-1.33-8.4-1.33-13s-.05-8.86,0-13.29c0-1.36-2.57-.5-2.91.34-1.75,4.37-2.81,8.95-4.38,13.38l2.8-.75c-2.19-3.55-4.95-6.74-6-10.85-.29-1.11-2.92-.28-2.9.78.17,7.76-.91,15.41-2,23.07-.16,1.18,2.76.69,2.91-.35Z"/><path class="cls-1" d="M175.79,58.14V81.81c0,1.35,2.92.8,2.92-.3V57.84c0-1.35-2.92-.8-2.92.3Z"/><path class="cls-1" d="M179.37,58.84l0-.48-2,1.07c2.88,0,5.79-.07,8.47-1.26l-1.74,0,.14.09-.32-.6a1.68,1.68,0,0,0,0,.5c.15,1.12,3.06.44,2.89-.77v0a.58.58,0,0,0-.31-.6c-1.08-.69-2.39.26-3.47.48a26.23,26.23,0,0,1-4.6.32c-.56,0-1.95.25-2,1.07l0,.47c-.07,1.32,2.85.8,2.91-.3Z"/><path class="cls-1" d="M177.78,82c3.36-.07,6.65-.78,10-.84,1.64,0,2.24-2.12.27-2.09-3.36.06-6.65.77-10,.84-1.64,0-2.24,2.13-.27,2.09Z"/><path class="cls-1" d="M177.17,69.75a39.14,39.14,0,0,0,8.25-1.28c.38-.09,1.43-.48,1.28-1s-1.28-.34-1.62-.26a32.17,32.17,0,0,1-6.75,1.06c-.51,0-1.69.19-1.92.76s.19.75.76.75Z"/><path class="cls-1" d="M2.81,151.57c2.05-2.41,7.59-4.09,10.5-5.36,4.62-2,9.57-2.91,14.5-3.86,8.23-1.59,16.42-3.29,24.62-5,18.13-3.85,36.18-8,54.32-11.84A559.77,559.77,0,0,1,217.49,114c9.56-.06,19.18-.7,28.74-.26s19,1.56,28.67,1.58c1,0,3.09-1.54,1.15-1.55-9,0-17.86-.9-26.84-1.48-9.22-.6-18.47.11-27.69.15-19,.07-38,.94-56.89,2.79-38.79,3.8-76.44,13.07-114.47,21.13-10.65,2.26-21.56,3.84-32.07,6.64-4,1.06-7.57,3-11.37,4.63-2.45,1-4.83,1.84-6.59,3.91-.77.91,2.11.69,2.68,0Z"/><path class="cls-1" d="M18.53,143.46c.31-2.63,1.84-5.24,3.26-7.42,1.32-2,4.48-6.81,7.39-6.09,5.13,1.26-3.72,10.48-5.32,12.09-1.27,1.28,1.52,1.75,2.42.84,2.68-2.7,12.63-13.63,3.81-15.07-3.69-.6-6.94,2.51-9.06,5.13-2.42,3-5,6.86-5.44,10.75-.17,1.46,2.78,1.07,2.94-.23Z"/><path class="cls-1" d="M16,144.3c3.41,5.26,8.15,9.33,14.77,6.88,2.44-.9,3.91-2.85,2.4-5.33-2-3.22-5.92-4.06-9.4-4.3-.75-.05-3.34,1.26-1.83,1.37,2.66.18,5.36.64,7.35,2.59s2.47,5-1.27,5c-4.23,0-7.06-3.82-9.12-7-.53-.82-3.25.25-2.9.78Z"/><path class="cls-1" d="M50.24,137.32a39.09,39.09,0,0,1,4.17-6c1.42-1.73,4.22-5.5,6.71-5.6a2.37,2.37,0,0,1,2.45,2.4c-.14,1.17-1.24,2.21-2,3-1.56,1.56-3.41,2.76-5.08,4.19-1.3,1.12,1.55,1.35,2.37.64,2.4-2.05,5.4-3.73,7-6.54s-.28-5.13-3.24-5.51c-3.29-.43-6.33,2.24-8.44,4.4a41.56,41.56,0,0,0-6.66,8.89c-.72,1.31,2.2,1.14,2.73.18Z"/><path class="cls-1" d="M47.67,138.41c1.88.82,3,3,4.69,4.1a22.85,22.85,0,0,0,6.94,3.08c3.18.79,7.4.75,9.84-1.79,1.8-1.88,1.51-4.33-.27-6.12-2.9-2.93-6.47-2.29-10.08-3.08-1.5-.32-2.89,1.8-1,2.22,2.3.5,4.71.12,6.85,1.19,3.38,1.69,3.69,5.4-.82,5.77-3.19.26-7.47-1.47-10-3.51-1.61-1.31-2.6-3.05-4.55-3.9-1.29-.57-3.35,1.29-1.65,2Z"/><path class="cls-1" d="M85.58,128.7c.29-3.26,3.91-7.1,6.14-9.26.64-.62,1.26-1.41,2-1.15,1,.35,1.39,2.12,1.42,3,.14,3.28-2.49,4.68-4.63,6.55-1.22,1.08,1.64,1,2.3.4,2.57-2.24,5.64-4.08,5.2-8a3.91,3.91,0,0,0-5.54-3.4c-2.37.91-4.26,3.25-5.79,5.17s-3.81,4.55-4,7.07c-.09,1.08,2.81.51,2.89-.4Z"/><path class="cls-1" d="M90.84,129c2.29,0,7.28,2.52,6.67,5.49-.39,1.89-3.31,1-4.64.69-2.12-.53-9-2.89-7.69-6.2.57-1.47-2.33-1.32-2.75-.24-2.27,5.84,9.12,9,13.06,8.8,2.38-.12,5.23-1.25,4.93-4.13-.43-4.13-5.69-6.37-9.27-6.34-1.58,0-2.28,1.94-.31,1.93Z"/><path class="cls-1" d="M119.26,121.85c0-1.86,1.52-3.86,2.57-5.23s3.3-4.47,5.15-4.61c4.49-.36-.8,8.26-2,9.31s1.69.78,2.27.26c2.73-2.42,7.8-11.6.42-10.94-2.9.26-5.34,2.45-7.2,4.51-1.71,1.88-4.18,4.75-4.12,7.47,0,.68,2.91.19,2.9-.77Z"/><path class="cls-1" d="M125.2,122.33c2.62.26,6.58,2.39,6.37,5.51-.24,3.47-3,2.55-5,1.34a23.71,23.71,0,0,1-7.71-7.53c-.53-.89-3.34.07-2.68,1.17,2.49,4.13,8.59,10.24,13.91,9.28,2.64-.48,4.92-3,4.36-5.78-.72-3.55-4.87-5.42-8.1-5.75-1.19-.12-3,1.56-1.1,1.76Z"/><path class="cls-1" d="M150.23,117c.79-2.72,4.79-8.81,8.09-7.09s-1.41,5.92-3.22,6.85,1,.68,1.66.34a12.18,12.18,0,0,0,5-4.5c1.32-2.33-.19-3.91-2.63-4.24-5-.67-10.49,4.67-11.79,9.17-.15.52,2.65.19,2.85-.53Z"/><path class="cls-1" d="M155,117.66a5.15,5.15,0,0,1,4,2.9c.6,1.28.73,3.45-1.19,3.45-3.23,0-6.46-4.34-7.91-6.83-.54-.93-3.32,0-2.9.78,2.46,4.23,7.34,9.37,12.72,7.09s1.33-8.33-2.92-8.91a2.51,2.51,0,0,0-2,.55c-.32.41-.45.87.26,1Z"/><path class="cls-1" d="M180.87,115c1.33-1.66,2.54-3.41,3.94-5s3.23-3.77,5.46-3.15c3.11.88-1.34,5.74-2.6,6.59-1.62,1.09.82,1.74,1.85,1,2.19-1.47,7.62-7.68,2.82-9.26-6.3-2.09-10.59,5.11-13.84,9.15-1.1,1.38,1.67,1.51,2.37.64Z"/><path class="cls-1" d="M189.81,114.2c-1.2,1.71-1.42-.22-.58.64a9,9,0,0,0,.88.59,8.92,8.92,0,0,1,1.6,1.59c.87,1.12,1.85,3,.76,4.34-1.92,2.29-6.75-1.39-8.47-2.58a9.7,9.7,0,0,1-3.41-4.6c-.39-.87-3.22,0-2.9.78,1.66,3.75,4.3,5.8,8,7.54,2.88,1.35,7.77,1.61,9.68-1.6,2.26-3.82-5.37-10.78-8.27-6.63-.66,1,2.19.61,2.67-.07Z"/><path class="cls-1" d="M211.85,112.7c1-2,7.46-11.33,10.27-7.85,1.8,2.24-4.14,6.33-5.52,7.67s1.54,1.61,2.41.77c2.06-2,10-8.05,4.46-10.57-5.81-2.65-12.14,5.21-14.37,9.71-.71,1.43,2.21,1.36,2.75.27Z"/><path class="cls-1" d="M217.23,113.32c2.3.13,4.27,3.08,5,5,.34.93.75,2.61,0,3.49s-1.72.12-2.52-.39c-3.07-1.94-6.58-6.21-7.07-9.91-.12-.86-3-.22-2.9.78.37,2.81,2.58,5.67,4.42,7.7s4.5,4.25,7.54,3.69c7.52-1.4,2.3-11.57-3.26-11.87-1-.06-3.11,1.41-1.16,1.51Z"/><path class="cls-1" d="M242,113c1.72-2.11,3.16-4.43,4.95-6.49,1-1.14,2.2-2.56,3.66-3.07,1-.37,3.09,0,3.77,1,1.59,2.38-5.31,6-6.66,7.43s1.51,1.85,2.43.89c2-2.09,11.2-7.07,5.86-10.48-7.35-4.7-12.7,5.27-16.44,9.87-1.16,1.43,1.58,1.94,2.43.89Z"/><path class="cls-1" d="M247.82,113.7c2,.3,3.51,2.81,4.2,4.52a7.63,7.63,0,0,1,.64,2.85,2.88,2.88,0,0,1-.26,1.51c-.39.56-.15.45-.91.15a13.73,13.73,0,0,1-4.78-3.75c-1.6-1.84-3.54-4.09-4.07-6.5-.15-.68-3.07,0-2.9.78.65,3,3.42,6.14,5.68,8.14,2,1.8,4.61,3.65,7.44,2.7,5.76-1.93,1.32-11-3.18-11.65-.67-.1-3.33,1-1.86,1.25Z"/><path class="cls-1" d="M281.7,108.54c-3.72.35-6.36,4.08-6.58,7.65-.21,3.3,1.4,6.66,5.13,5.91,4.15-.83,8.11-3.82,8.06-8.36,0-2-.56-3.86-2.52-4.71a8.58,8.58,0,0,0-5.87,0c-1.67.55-1.39,1.8.33,1.24,2.88-.94,4.9.79,5.13,3.61a6.74,6.74,0,0,1-.92,4.14c-.82,1.27-3.34,3.39-4.94,2.44-1.4-.84-1.64-3.71-1.48-5.11s1.42-5.2,3.21-5.37c1.33-.12,2.47-1.59.45-1.39Z"/></g></g></svg>